<?xml version="1.0" encoding="UTF-8"?><svg id="Layer_1" xmlns="http://www.w3.org/2000/svg" viewBox="0 0 295.83 378.27"><defs><style>.cls-1{fill:#273c52;}</style></defs><path class="cls-1" d="M61.78,265.25c0-7.13-5.4-8.35-14.62-10.73-8.42-2.16-13.32-4.61-13.32-13.75,0-7.27,4.9-14.69,14.98-14.69,5.62,0,9,2.23,11.23,2.23,1.08,0,1.37-.5,1.87-1.44h1.08l.5,14.54h-1.58c-2.16-9-5.11-13.32-13.32-13.32-6.7,0-10.3,3.67-10.3,9.22s5.4,7.63,11.81,9.36c7.85,2.09,15.77,4.25,15.77,15.19,0,9.22-5.83,16.13-16.49,16.13-6.7,0-10.44-2.16-12.67-2.16-1.08,0-1.3.79-1.87,2.16h-1.22l-.72-16.42h1.58c2.16,9.07,5.76,14.4,14.69,14.4,7.63,0,12.6-4.39,12.6-10.73Z"/><path class="cls-1" d="M79.56,259.49c0,10.94,3.02,15.99,9.79,15.99s9.29-5.26,10.01-9.5l2.09.36c-.79,4.32-3.02,11.67-13.75,11.67-10.01,0-15.7-6.19-15.7-17.21,0-12.38,6.98-18.51,17.21-18.51,7.71,0,12.03,3.53,12.03,9.14,0,3.67-1.87,5.26-4.39,5.26s-4.18-1.58-4.18-4.39c0-.72.07-1.66.36-2.66h1.94c.14-.58.22-1.15.22-1.66,0-2.52-1.73-3.96-5.54-3.96-6.99,0-10.08,4.82-10.08,15.48Z"/><path class="cls-1" d="M117,223.27v26.5c1.66-3.53,5.4-7.49,12.67-7.49,6.62,0,10.66,3.31,10.66,12.03v21.1h5.47v1.87h-17.79v-1.87h5.4v-21.82c0-5.98-1.3-8.71-5.83-8.71-5.54,0-10.58,4.75-10.58,11.45v19.08h5.47v1.87h-17.79v-1.87h5.4v-50.26h-5.4v-1.87h12.31Z"/><path class="cls-1" d="M161.14,223.27v52.13h5.4v1.87h-17.71v-1.87h5.4v-50.26h-5.4v-1.87h12.31Z"/><path class="cls-1" d="M182.66,243v32.4h5.47v1.87h-17.79v-1.87h5.4v-30.53h-5.4v-1.87h12.31ZM178.63,226.94c2.52,0,4.39,1.22,4.39,4.25,0,2.59-1.51,4.39-4.32,4.39-3.31,0-4.39-2.23-4.39-4.39,0-2.3,1.51-4.25,4.32-4.25Z"/><path class="cls-1" d="M196.41,244.87h-5.4v-1.87h5.4v-9.29l6.91-1.87v11.16h10.08v1.87h-10.08v23.69c0,4.25,1.08,6.05,4.82,6.05,3.96,0,5.69-2.74,6.34-7.63l1.66.22c-.65,5.62-2.74,10.8-10.44,10.8-5.4,0-9.29-2.09-9.29-8.57v-24.55Z"/><path class="cls-1" d="M247.9,244.87l-20.52,30.53h10.22c6.26,0,7.63-2.95,9.79-10.08h1.37l-.72,11.95h-28.66v-1.66l20.81-30.75h-9.5c-5.47,0-6.84.58-9.65,8.93h-1.51l.72-10.8h27.65v1.87Z"/><path class="cls-1" d="M29.59,319.62H13.25l-5.33,14.69h6.55v2.09H0v-2.09h5.04l18.29-49.11h1.94l17.64,49.11h4.97v2.09h-19.58v-2.09h6.34l-5.04-14.69ZM13.97,317.53h14.91l-7.2-21.6-7.71,21.6Z"/><path class="cls-1" d="M76.03,336.4l-.43-6.7c-1.66,3.53-5.33,7.42-12.17,7.42s-10.8-3.31-10.8-12.02v-21.1h-5.47v-1.87h12.38v23.76c0,5.47,1.01,8.64,5.98,8.64s9.87-5.62,9.87-10.95v-19.58h-5.47v-1.87h12.38v32.4h5.54v1.87h-11.81Z"/><path class="cls-1" d="M116.28,330.85c-2.3,3.67-5.62,6.26-11.3,6.26-8.5,0-13.97-5.83-13.97-17.5s5.9-18.22,15.19-18.22c5.04,0,8.14,2.02,10.08,5.04v-22.18h-6.77v-1.87h13.68v52.13h5.83v1.87h-12.17l-.58-5.54ZM116.5,324.23v-11.3c0-3.96-3.46-9.29-9.07-9.29-6.19,0-8.86,5.18-8.86,15.7,0,9.22,1.66,15.05,7.99,15.05,5.04,0,9.94-4.03,9.94-10.15Z"/><path class="cls-1" d="M159.7,336.4l-.43-6.7c-1.66,3.53-5.33,7.42-12.17,7.42s-10.8-3.31-10.8-12.02v-21.1h-5.47v-1.87h12.38v23.76c0,5.47,1.01,8.64,5.98,8.64s9.87-5.62,9.87-10.95v-19.58h-5.47v-1.87h12.38v32.4h5.54v1.87h-11.81Z"/><path class="cls-1" d="M185.47,307.67c2.3-3.67,5.98-6.26,11.67-6.26,8.5,0,13.61,5.83,13.61,17.5s-5.98,18.22-15.19,18.22c-5.4,0-8.86-1.66-11.38-4.9l-4.03,4.83h-1.58v-52.78h-5.83v-1.87h12.74v25.27ZM185.26,314.29v11.09c0,5.69,3.6,9.5,9.43,9.5s8.5-4.54,8.5-15.7c0-9.22-1.44-15.05-7.99-15.05-4.82,0-9.94,4.03-9.94,10.15Z"/><path class="cls-1" d="M232.27,301.4c10.08,0,15.98,5.54,15.98,17.64,0,11.16-5.9,18.07-16.27,18.07s-16.2-6.48-16.2-17.71,6.62-18,16.49-18ZM232.13,303.13c-7.34,0-8.79,7.13-8.79,15.77s1.51,16.49,8.79,16.49,8.57-6.77,8.57-16.35c0-8.57-1.44-15.91-8.57-15.91Z"/><path class="cls-1" d="M264.81,302.12v6.77c1.66-3.53,5.4-7.49,12.67-7.49,6.62,0,10.66,3.31,10.66,12.03v21.1h5.47v1.87h-17.79v-1.87h5.4v-22.25c0-5.33-1.3-8.28-5.76-8.28-5.62,0-10.66,4.75-10.66,11.45v19.08h5.47v1.87h-17.79v-1.87h5.4v-30.53h-5.4v-1.87h12.31Z"/><path class="cls-1" d="M104.18,112.86l1.77-2.17s-3.66-2.3-.83-3.58l-4.13-7.03s5.31-3.84,12.86-4.35l1.8-.35c-2.37,2.08-3.96,5.98-3.96,10.44,0,6.66,3.54,12.06,7.91,12.06s7.91-5.4,7.91-12.06c0-6.13-3-11.19-6.89-11.95l.19-.7-7.67-1.28-10.14-.64s-7.31-3.71-8.61-3.45c0,0-.47,1.65,1.42,2.68l-1.47.52s.52,2.05,2.18,2.17l-2.18.51s.76,2.3,2.53,2.3h-3.07s.94,3.2,2.71,3.58l1.77,3.33s-2.83,23.02,19.82,28.01c15.1,0,15.81-9.59,15.81-9.59v-2.3s-17.93,18.29-29.73-6.14Z"/><path class="cls-1" d="M109.15,47.89s-11.64-30.09-11.94-36.24c0,0-2.69,17.47,0,22,0,0-12.53-17.15-14.33-22,0,0-4.18,3.88,0,11.65,0,0-5.37-.32-10.15-7.77,0,0-4.77-11.97-5.67-15.53,0,0-2.69,4.85,0,11.65l3.88,7.44-8.06-9.71c.11-.09,6.53,18.48,9.83,20.85-2.16-1.26-4.34-2.39-6.55-3.38-.28.19,8.73,11.8,12.83,11.65,0,0-6.57,1.29-13.13-8.09,0,0,0,3.88-5.37-.97,0,0,5.07,14.89,22.98,25.24,0,0,1.7,2.73,4.35,6.51h0s-13.58,10.17-13.02,41.13l-.02,12.14s11.73-41.99,16.33-48.73c6.11,8.13,14.61,17.77,20.57,17.77,0,0-7.91,3.08-7.01,4.29h11.19s14.85,6.08,15.13,7.18c0,0,5.53.54,1.44-5.65,0,0-21.49-31.71-23.28-41.42Z"/><path class="cls-1" d="M107.44,159.61c-3.11-1.12-6.02-1.68-8.77-1.73-4.6-4.72-14.46-15.89-18.68-28.7l-2.52-.91s1.77,16.81,14.53,30.55h.01c-.7.23-1.39.49-2.07.79,13.33.85,25.71,9.15,37.57,21.48-5.71-10.28-12.13-18.33-20.07-21.48Z"/><path class="cls-1" d="M137.44,52.03s4.87-1.09,9.97.84v.03c5.11-1.93,9.98-.84,9.98-.84,12.39-.77,12.73-6.9,12.73-6.9l-5.65-5.38c-5.62-5.34-16.94-4.23-17.06-4.22v-.03s-11.41-1.15-17.06,4.22l-5.65,5.38s.34,6.14,12.73,6.9Z"/><path class="cls-1" d="M57.95,91.47s16.27-9.79,16.84-16.39c0,0-3.83,1.82-7.82-1.82,0,0,12.17-.49,10.49-12.07,0,0-7.56,11.39-14.28,11.01,0,0,1.54,3.84,7.14,4.61,0,0-7.85,13.82-17.05,13.05,0,0,4.25,6.04,9.56,7.43,0,0-2.12,13.29-8.14,10.22l3.54,4.22s-8.85,2.49-10.97-2.4c0,0,3.28,11.11,8.58,13.65l-8.58-3.58s2.43,23.41,13.25,29.55c0,0-7.01-9.96-8.3-23.41l10.15,2.71s-3.93-7.83-7.32-11.92c0,0,9.91-.38,9.56-3.84l-5.18-3.17s6.93-9.27,6.93-14.36l-8.4-3.5Z"/><path class="cls-1" d="M99.07,198.21s-18.77-19.72-30.61-22.54c0,0,33.1,26.92,34.02,33.19,0,0,5.3-11.27-5.27-25.05,0,0,13.57,17.84,27.49,14.4,0,0-25.93-14.4-35.75-25.05l10.11,25.05Z"/><path class="cls-1" d="M196.55,102.91l1.77-3.33c1.77-.38,2.71-3.58,2.71-3.58h-3.07c1.77,0,2.53-2.3,2.53-2.3l-2.18-.51c1.65-.13,2.18-2.17,2.18-2.17l-1.47-.52c1.89-1.03,1.42-2.68,1.42-2.68-1.3-.26-8.61,3.45-8.61,3.45l-10.14.64-7.67,1.28.19.7c-3.88.76-6.89,5.82-6.89,11.95,0,6.66,3.54,12.06,7.91,12.06s7.91-5.4,7.91-12.06c0-4.47-1.6-8.36-3.96-10.44l1.8.35c7.55.51,12.86,4.35,12.86,4.35l-4.13,7.03c2.83,1.28-.83,3.58-.83,3.58l1.77,2.17c-11.8,24.43-29.73,6.14-29.73,6.14v2.3s.71,9.59,15.81,9.59c22.65-4.99,19.82-28.01,19.82-28.01Z"/><path class="cls-1" d="M147.42,130.93v-.04l-10.2,17.04c-.47.78-.55,1.75-.24,2.62l10.44,28.29v.04l10.44-28.3c.32-.86.23-1.84-.24-2.62l-10.2-17.03Z"/><path class="cls-1" d="M163.85,94.99c.28-1.11,15.13-7.18,15.13-7.18h11.19c.9-1.21-7.01-4.29-7.01-4.29,5.96,0,14.46-9.64,20.57-17.77,4.6,6.75,16.33,48.73,16.33,48.73l-.02-12.14c.56-30.95-13.02-41.13-13.02-41.13h0c2.65-3.77,4.35-6.51,4.35-6.51,17.91-10.35,22.98-25.24,22.98-25.24-5.37,4.85-5.37.97-5.37.97-6.57,9.38-13.13,8.09-13.13,8.09,4.1.15,13.11-11.46,12.83-11.65-2.21.99-4.39,2.12-6.55,3.38,3.3-2.37,9.72-20.95,9.83-20.85l-8.06,9.71,3.88-7.44c2.69-6.8,0-11.65,0-11.65-.9,3.56-5.67,15.53-5.67,15.53-4.77,7.44-10.15,7.77-10.15,7.77,4.18-7.77,0-11.65,0-11.65-1.79,4.85-14.32,22-14.32,22,2.69-4.53,0-22,0-22-.3,6.15-11.94,36.24-11.94,36.24-1.79,9.71-23.28,41.42-23.28,41.42-4.09,6.19,1.44,5.65,1.44,5.65Z"/><path class="cls-1" d="M202.83,158.85h.01c12.76-13.75,14.53-30.56,14.53-30.56l-2.52.91c-4.22,12.81-14.08,23.98-18.68,28.7-2.75.06-5.66.61-8.77,1.73-7.94,3.15-14.35,11.19-20.07,21.48,11.86-12.33,24.24-20.63,37.57-21.48-.68-.3-1.37-.56-2.07-.79Z"/><path class="cls-1" d="M247.58,109.36c-2.12,4.89-10.97,2.4-10.97,2.4l3.54-4.22c-6.02,3.07-8.14-10.22-8.14-10.22,5.31-1.39,9.56-7.43,9.56-7.43-9.2.77-17.05-13.05-17.05-13.05,5.6-.77,7.14-4.61,7.14-4.61-6.72.38-14.28-11.01-14.28-11.01-1.67,11.58,10.49,12.07,10.49,12.07-3.99,3.64-7.82,1.82-7.82,1.82.58,6.6,16.84,16.39,16.84,16.39l-8.4,3.5c0,5.09,6.93,14.36,6.93,14.36l-5.18,3.17c-.35,3.45,9.56,3.84,9.56,3.84-3.39,4.1-7.32,11.92-7.32,11.92l10.15-2.71c-1.28,13.45-8.3,23.41-8.3,23.41,10.82-6.14,13.25-29.55,13.25-29.55l-8.58,3.58c5.3-2.54,8.58-13.65,8.58-13.65Z"/><path class="cls-1" d="M205.87,173.19c-9.82,10.64-35.74,25.05-35.74,25.05,13.92,3.44,27.49-14.4,27.49-14.4-10.56,13.78-5.27,25.05-5.27,25.05.92-6.26,34.02-33.19,34.02-33.19-11.84,2.82-30.61,22.54-30.61,22.54l10.11-25.05Z"/><path class="cls-1" d="M.67,352.82c0-.29.25-.47.54-.47h.61l17.28,22.5h.04v-21.67c0-.25.22-.47.47-.47h.72c.25,0,.47.22.47.47v24.62c0,.32-.29.47-.58.47h-.47s-.32-.11-17.42-22.71h-.04v21.89c0,.25-.22.47-.47.47h-.68c-.25,0-.47-.21-.47-.47v-24.62Z"/><path class="cls-1" d="M26.38,377.47l11.09-25.05c.07-.14.25-.25.43-.25h.11c.18,0,.36.04.47.25l10.98,25.05c.07.22.07.43-.32.43h-.94c-.25,0-.43-.18-.5-.32l-2.92-6.62h-13.75l-2.88,6.62c-.07.14-.25.32-.5.32h-1.01c-.25,0-.36-.14-.25-.43ZM44.16,369.55l-6.16-14.51h-.07l-6.26,14.51h12.49Z"/><path class="cls-1" d="M57.44,354.26h-6.88c-.36,0-.47-.22-.47-.54v-.54c0-.29.22-.47.47-.47h15.48c.29,0,.47.22.47.47v.61c0,.25-.18.47-.47.47h-6.91v23.18c0,.25-.22.47-.58.47h-.65c-.25,0-.47-.21-.47-.47v-23.18Z"/><path class="cls-1" d="M71.88,353.18c0-.25.22-.47.47-.47h.76c.25,0,.47.22.47.47v15.37c0,4.64,2.92,8.06,7.7,8.06s7.77-3.38,7.77-8.03v-15.41c0-.29.14-.47.5-.47h.72c.25,0,.47.22.47.47v15.55c0,5.51-3.74,9.54-9.47,9.54s-9.39-4.03-9.39-9.54v-15.55Z"/><path class="cls-1" d="M99.63,353.18c0-.25.18-.47.47-.47h8.93c4.39,0,8.03,3.31,8.03,7.7,0,3.64-2.52,6.55-5.94,7.52l5.26,9.32c.18.29.11.65-.25.65h-1.12c-.25,0-.4-.11-.5-.32l-5.22-9.43c-.47.04-.86.04-1.33.04h-6.62v9.25c0,.25-.22.47-.58.47h-.65c-.25,0-.47-.21-.47-.47v-24.26ZM108.96,366.67c3.46,0,6.37-2.7,6.37-6.26s-2.92-6.05-6.41-6.05h-7.56v12.31h7.6Z"/><path class="cls-1" d="M124.58,353.18c0-.25.22-.47.47-.47h14.43c.25,0,.47.22.47.47v.61c0,.25-.22.47-.47.47h-13.17v9.94h11.41c.25,0,.47.21.47.47v.61c0,.25-.22.47-.47.47h-11.41v10.65h13.17c.25,0,.47.22.47.47v.58c0,.25-.22.47-.47.47h-14.43c-.25,0-.47-.21-.47-.47v-24.26Z"/><path class="cls-1" d="M168.25,352.35c3.67,0,6.41,1.22,8.75,3.35.18.18.22.47.04.65l-.58.61c-.22.22-.4.18-.61-.04-2.05-1.84-4.64-2.95-7.59-2.95-6.3,0-11.23,5.15-11.23,11.37s4.93,11.3,11.23,11.3c3.09,0,5.43-1.22,7.59-3.02.22-.18.43-.18.58-.07l.61.61c.18.14.18.43,0,.61-2.45,2.38-5.58,3.49-8.78,3.49-7.2,0-13.03-5.69-13.03-12.92s5.83-12.99,13.03-12.99Z"/><path class="cls-1" d="M184.41,353.18c0-.25.22-.47.47-.47h14.43c.25,0,.47.22.47.47v.61c0,.25-.22.47-.47.47h-13.17v9.94h11.41c.25,0,.47.21.47.47v.61c0,.25-.22.47-.47.47h-11.41v10.65h13.17c.25,0,.47.22.47.47v.58c0,.25-.22.47-.47.47h-14.43c-.25,0-.47-.21-.47-.47v-24.26Z"/><path class="cls-1" d="M207.49,352.82c0-.29.25-.47.54-.47h.61l17.28,22.5h.04v-21.67c0-.25.22-.47.47-.47h.72c.25,0,.47.22.47.47v24.62c0,.32-.29.47-.58.47h-.47s-.32-.11-17.42-22.71h-.04v21.89c0,.25-.22.47-.47.47h-.68c-.25,0-.47-.21-.47-.47v-24.62Z"/><path class="cls-1" d="M240.61,354.26h-6.88c-.36,0-.47-.22-.47-.54v-.54c0-.29.22-.47.47-.47h15.48c.29,0,.47.22.47.47v.61c0,.25-.18.47-.47.47h-6.91v23.18c0,.25-.22.47-.58.47h-.65c-.25,0-.47-.21-.47-.47v-23.18Z"/><path class="cls-1" d="M255.33,353.18c0-.25.22-.47.47-.47h14.43c.25,0,.47.22.47.47v.61c0,.25-.22.47-.47.47h-13.17v9.94h11.41c.25,0,.47.21.47.47v.61c0,.25-.22.47-.47.47h-11.41v10.65h13.17c.25,0,.47.22.47.47v.58c0,.25-.22.47-.47.47h-14.43c-.25,0-.47-.21-.47-.47v-24.26Z"/><path class="cls-1" d="M278.41,353.18c0-.25.18-.47.47-.47h8.93c4.39,0,8.03,3.31,8.03,7.7,0,3.64-2.52,6.55-5.94,7.52l5.26,9.32c.18.29.11.65-.25.65h-1.12c-.25,0-.4-.11-.5-.32l-5.22-9.43c-.47.04-.86.04-1.33.04h-6.62v9.25c0,.25-.22.47-.58.47h-.65c-.25,0-.47-.21-.47-.47v-24.26ZM287.73,366.67c3.46,0,6.37-2.7,6.37-6.26s-2.92-6.05-6.41-6.05h-7.56v12.31h7.6Z"/></svg>