<?xml version="1.0" encoding="UTF-8"?><svg id="Layer_1" xmlns="http://www.w3.org/2000/svg" viewBox="0 0 200.32 208.88"><defs><style>.cls-1{fill:#d1c3ab;}</style></defs><path class="cls-1" d="M56.93,112.86l1.77-2.17s-3.66-2.3-.83-3.58l-4.13-7.03s5.31-3.84,12.86-4.35l1.8-.35c-2.37,2.08-3.96,5.98-3.96,10.44,0,6.66,3.54,12.06,7.91,12.06s7.91-5.4,7.91-12.06c0-6.13-3-11.19-6.89-11.95l.19-.7-7.67-1.28-10.14-.64s-7.31-3.71-8.61-3.45c0,0-.47,1.65,1.42,2.68l-1.47.52s.52,2.05,2.18,2.17l-2.18.51s.76,2.3,2.53,2.3h-3.07s.94,3.2,2.71,3.58l1.77,3.33s-2.83,23.02,19.82,28.01c15.1,0,15.81-9.59,15.81-9.59v-2.3s-17.93,18.29-29.73-6.14Z"/><path class="cls-1" d="M61.9,47.89s-11.64-30.09-11.94-36.24c0,0-2.69,17.47,0,22,0,0-12.53-17.15-14.33-22,0,0-4.18,3.88,0,11.65,0,0-5.37-.32-10.15-7.77,0,0-4.77-11.97-5.67-15.53,0,0-2.69,4.85,0,11.65l3.88,7.44-8.06-9.71c.11-.09,6.53,18.48,9.83,20.85-2.16-1.26-4.34-2.39-6.55-3.38-.28.19,8.73,11.8,12.83,11.65,0,0-6.57,1.29-13.13-8.09,0,0,0,3.88-5.37-.97,0,0,5.07,14.89,22.98,25.24,0,0,1.7,2.73,4.35,6.51h0s-13.58,10.17-13.02,41.13l-.02,12.14s11.73-41.99,16.33-48.73c6.11,8.13,14.61,17.77,20.57,17.77,0,0-7.91,3.08-7.01,4.29h11.19s14.85,6.08,15.13,7.18c0,0,5.53.54,1.44-5.65,0,0-21.49-31.71-23.28-41.42Z"/><path class="cls-1" d="M60.18,159.61c-3.11-1.12-6.02-1.68-8.77-1.73-4.6-4.72-14.46-15.89-18.68-28.7l-2.52-.91s1.77,16.81,14.53,30.55h.01c-.7.23-1.39.49-2.07.79,13.33.85,25.71,9.15,37.57,21.48-5.71-10.28-12.13-18.33-20.07-21.48Z"/><path class="cls-1" d="M90.19,52.03s4.87-1.09,9.97.84v.03c5.11-1.93,9.98-.84,9.98-.84,12.39-.77,12.73-6.9,12.73-6.9l-5.65-5.38c-5.62-5.34-16.94-4.23-17.06-4.22v-.03s-11.41-1.15-17.06,4.22l-5.65,5.38s.34,6.14,12.73,6.9Z"/><path class="cls-1" d="M10.69,91.47s16.27-9.79,16.84-16.39c0,0-3.83,1.82-7.82-1.82,0,0,12.17-.49,10.49-12.07,0,0-7.56,11.39-14.28,11.01,0,0,1.54,3.84,7.14,4.61,0,0-7.85,13.82-17.05,13.05,0,0,4.25,6.04,9.56,7.43,0,0-2.12,13.29-8.14,10.22l3.54,4.22s-8.85,2.49-10.97-2.4c0,0,3.28,11.11,8.58,13.65l-8.58-3.58s2.43,23.41,13.25,29.55c0,0-7.01-9.96-8.3-23.41l10.15,2.71s-3.93-7.83-7.32-11.92c0,0,9.91-.38,9.56-3.84l-5.18-3.17s6.93-9.27,6.93-14.36l-8.4-3.5Z"/><path class="cls-1" d="M51.82,198.21s-18.77-19.72-30.61-22.54c0,0,33.1,26.92,34.02,33.19,0,0,5.3-11.27-5.27-25.05,0,0,13.57,17.84,27.49,14.4,0,0-25.93-14.4-35.75-25.05l10.11,25.05Z"/><path class="cls-1" d="M149.3,102.91l1.77-3.33c1.77-.38,2.71-3.58,2.71-3.58h-3.07c1.77,0,2.53-2.3,2.53-2.3l-2.18-.51c1.65-.13,2.18-2.17,2.18-2.17l-1.47-.52c1.89-1.03,1.42-2.68,1.42-2.68-1.3-.26-8.61,3.45-8.61,3.45l-10.14.64-7.67,1.28.19.7c-3.88.76-6.89,5.82-6.89,11.95,0,6.66,3.54,12.06,7.91,12.06s7.91-5.4,7.91-12.06c0-4.47-1.6-8.36-3.96-10.44l1.8.35c7.55.51,12.86,4.35,12.86,4.35l-4.13,7.03c2.83,1.28-.83,3.58-.83,3.58l1.77,2.17c-11.8,24.43-29.73,6.14-29.73,6.14v2.3s.71,9.59,15.81,9.59c22.65-4.99,19.82-28.01,19.82-28.01Z"/><path class="cls-1" d="M100.17,130.93v-.04l-10.2,17.04c-.47.78-.55,1.75-.24,2.62l10.44,28.29v.04l10.44-28.3c.32-.86.23-1.84-.24-2.62l-10.2-17.03Z"/><path class="cls-1" d="M116.59,94.99c.28-1.11,15.13-7.18,15.13-7.18h11.19c.9-1.21-7.01-4.29-7.01-4.29,5.96,0,14.46-9.64,20.57-17.77,4.6,6.75,16.33,48.73,16.33,48.73l-.02-12.14c.56-30.95-13.02-41.13-13.02-41.13h0c2.65-3.77,4.35-6.51,4.35-6.51,17.91-10.35,22.98-25.24,22.98-25.24-5.37,4.85-5.37.97-5.37.97-6.57,9.38-13.13,8.09-13.13,8.09,4.1.15,13.11-11.46,12.83-11.65-2.21.99-4.39,2.12-6.55,3.38,3.3-2.37,9.72-20.95,9.83-20.85l-8.06,9.71,3.88-7.44c2.69-6.8,0-11.65,0-11.65-.9,3.56-5.67,15.53-5.67,15.53-4.77,7.44-10.15,7.77-10.15,7.77,4.18-7.77,0-11.65,0-11.65-1.79,4.85-14.32,22-14.32,22,2.69-4.53,0-22,0-22-.3,6.15-11.94,36.24-11.94,36.24-1.79,9.71-23.28,41.42-23.28,41.42-4.09,6.19,1.44,5.65,1.44,5.65Z"/><path class="cls-1" d="M155.58,158.85h.01c12.76-13.75,14.53-30.56,14.53-30.56l-2.52.91c-4.22,12.81-14.08,23.98-18.68,28.7-2.75.06-5.66.61-8.77,1.73-7.94,3.15-14.35,11.19-20.07,21.48,11.86-12.33,24.24-20.63,37.57-21.48-.68-.3-1.37-.56-2.07-.79Z"/><path class="cls-1" d="M200.32,109.36c-2.12,4.89-10.97,2.4-10.97,2.4l3.54-4.22c-6.02,3.07-8.14-10.22-8.14-10.22,5.31-1.39,9.56-7.43,9.56-7.43-9.2.77-17.05-13.05-17.05-13.05,5.6-.77,7.14-4.61,7.14-4.61-6.72.38-14.28-11.01-14.28-11.01-1.67,11.58,10.49,12.07,10.49,12.07-3.99,3.64-7.82,1.82-7.82,1.82.58,6.6,16.84,16.39,16.84,16.39l-8.4,3.5c0,5.09,6.93,14.36,6.93,14.36l-5.18,3.17c-.35,3.45,9.56,3.84,9.56,3.84-3.39,4.1-7.32,11.92-7.32,11.92l10.15-2.71c-1.28,13.45-8.3,23.41-8.3,23.41,10.82-6.14,13.25-29.55,13.25-29.55l-8.58,3.58c5.3-2.54,8.58-13.65,8.58-13.65Z"/><path class="cls-1" d="M158.61,173.19c-9.82,10.64-35.74,25.05-35.74,25.05,13.92,3.44,27.49-14.4,27.49-14.4-10.56,13.78-5.27,25.05-5.27,25.05.92-6.26,34.02-33.19,34.02-33.19-11.84,2.82-30.61,22.54-30.61,22.54l10.11-25.05Z"/></svg>