<?xml version="1.0" encoding="UTF-8"?><svg id="Layer_1" xmlns="http://www.w3.org/2000/svg" viewBox="0 0 298.98 155"><defs><style>.cls-1{fill:#273c52;}</style></defs><path class="cls-1" d="M32.98,41.98c0-7.13-5.4-8.35-14.62-10.73-8.42-2.16-13.32-4.61-13.32-13.75,0-7.27,4.9-14.69,14.98-14.69,5.62,0,9,2.23,11.23,2.23,1.08,0,1.37-.5,1.87-1.44h1.08l.5,14.54h-1.58c-2.16-9-5.11-13.32-13.32-13.32-6.7,0-10.3,3.67-10.3,9.22s5.4,7.63,11.81,9.36c7.85,2.09,15.77,4.25,15.77,15.19,0,9.22-5.83,16.13-16.49,16.13-6.7,0-10.44-2.16-12.67-2.16-1.08,0-1.3.79-1.87,2.16h-1.22l-.72-16.42h1.58c2.16,9.07,5.76,14.4,14.69,14.4,7.63,0,12.6-4.39,12.6-10.73Z"/><path class="cls-1" d="M50.76,36.22c0,10.94,3.02,15.99,9.79,15.99s9.29-5.26,10.01-9.5l2.09.36c-.79,4.32-3.02,11.67-13.75,11.67-10.01,0-15.7-6.19-15.7-17.21,0-12.38,6.98-18.51,17.21-18.51,7.71,0,12.03,3.53,12.03,9.14,0,3.67-1.87,5.26-4.39,5.26s-4.18-1.58-4.18-4.39c0-.72.07-1.66.36-2.66h1.94c.14-.58.22-1.15.22-1.66,0-2.52-1.73-3.96-5.54-3.96-6.99,0-10.08,4.82-10.08,15.48Z"/><path class="cls-1" d="M88.2,0v26.5c1.66-3.53,5.4-7.49,12.67-7.49,6.62,0,10.66,3.31,10.66,12.03v21.1h5.47v1.87h-17.79v-1.87h5.4v-21.82c0-5.98-1.3-8.71-5.83-8.71-5.54,0-10.58,4.75-10.58,11.45v19.08h5.47v1.87h-17.79v-1.87h5.4V1.87h-5.4V0h12.31Z"/><path class="cls-1" d="M132.34,0v52.13h5.4v1.87h-17.71v-1.87h5.4V1.87h-5.4V0h12.31Z"/><path class="cls-1" d="M153.86,19.73v32.4h5.47v1.87h-17.79v-1.87h5.4v-30.53h-5.4v-1.87h12.31ZM149.83,3.67c2.52,0,4.39,1.22,4.39,4.25,0,2.59-1.51,4.39-4.32,4.39-3.31,0-4.39-2.23-4.39-4.39,0-2.3,1.51-4.25,4.32-4.25Z"/><path class="cls-1" d="M167.62,21.6h-5.4v-1.87h5.4v-9.29l6.91-1.87v11.16h10.08v1.87h-10.08v23.69c0,4.25,1.08,6.05,4.82,6.05,3.96,0,5.69-2.74,6.34-7.63l1.66.22c-.65,5.62-2.74,10.8-10.44,10.8-5.4,0-9.29-2.09-9.29-8.57v-24.55Z"/><path class="cls-1" d="M219.1,21.6l-20.52,30.53h10.23c6.26,0,7.63-2.95,9.79-10.08h1.37l-.72,11.95h-28.66v-1.66l20.81-30.75h-9.5c-5.47,0-6.84.58-9.65,8.93h-1.51l.72-10.8h27.65v1.87Z"/><path class="cls-1" d="M29.59,96.35H13.25l-5.33,14.69h6.55v2.09H0v-2.09h5.04l18.29-49.11h1.94l17.64,49.11h4.97v2.09h-19.58v-2.09h6.34l-5.04-14.69ZM13.97,94.26h14.91l-7.2-21.6-7.71,21.6Z"/><path class="cls-1" d="M76.03,113.13l-.43-6.7c-1.66,3.53-5.33,7.42-12.17,7.42s-10.8-3.31-10.8-12.02v-21.1h-5.47v-1.87h12.38v23.76c0,5.47,1.01,8.64,5.98,8.64s9.87-5.62,9.87-10.95v-19.58h-5.47v-1.87h12.38v32.4h5.54v1.87h-11.81Z"/><path class="cls-1" d="M116.28,107.58c-2.3,3.67-5.62,6.26-11.3,6.26-8.5,0-13.97-5.83-13.97-17.5s5.9-18.22,15.19-18.22c5.04,0,8.14,2.02,10.08,5.04v-22.18h-6.77v-1.87h13.68v52.13h5.83v1.87h-12.17l-.58-5.54ZM116.5,100.96v-11.3c0-3.96-3.46-9.29-9.07-9.29-6.19,0-8.86,5.18-8.86,15.7,0,9.22,1.66,15.05,7.99,15.05,5.04,0,9.94-4.03,9.94-10.15Z"/><path class="cls-1" d="M159.7,113.13l-.43-6.7c-1.66,3.53-5.33,7.42-12.17,7.42s-10.8-3.31-10.8-12.02v-21.1h-5.47v-1.87h12.38v23.76c0,5.47,1.01,8.64,5.98,8.64s9.87-5.62,9.87-10.95v-19.58h-5.47v-1.87h12.38v32.4h5.54v1.87h-11.81Z"/><path class="cls-1" d="M185.47,84.4c2.3-3.67,5.98-6.26,11.67-6.26,8.5,0,13.61,5.83,13.61,17.5s-5.98,18.22-15.19,18.22c-5.4,0-8.86-1.66-11.38-4.9l-4.03,4.83h-1.58v-52.78h-5.83v-1.87h12.75v25.27ZM185.26,91.02v11.09c0,5.69,3.6,9.5,9.43,9.5s8.5-4.54,8.5-15.7c0-9.22-1.44-15.05-7.99-15.05-4.82,0-9.94,4.03-9.94,10.15Z"/><path class="cls-1" d="M232.27,78.13c10.08,0,15.99,5.54,15.99,17.64,0,11.16-5.9,18.07-16.27,18.07s-16.2-6.48-16.2-17.71,6.62-18,16.49-18ZM232.13,79.86c-7.34,0-8.78,7.13-8.78,15.77s1.51,16.49,8.78,16.49,8.57-6.77,8.57-16.35c0-8.57-1.44-15.91-8.57-15.91Z"/><path class="cls-1" d="M264.82,78.85v6.77c1.66-3.53,5.4-7.49,12.67-7.49,6.62,0,10.66,3.31,10.66,12.03v21.1h5.47v1.87h-17.79v-1.87h5.4v-22.25c0-5.33-1.3-8.28-5.76-8.28-5.62,0-10.66,4.75-10.66,11.45v19.08h5.47v1.87h-17.79v-1.87h5.4v-30.53h-5.4v-1.87h12.31Z"/><path class="cls-1" d="M3.82,129.55c0-.29.25-.47.54-.47h.61l17.28,22.5h.04v-21.67c0-.25.22-.47.47-.47h.72c.25,0,.47.22.47.47v24.62c0,.32-.29.47-.58.47h-.47s-.32-.11-17.42-22.71h-.04v21.89c0,.25-.22.47-.47.47h-.68c-.25,0-.47-.22-.47-.47v-24.62Z"/><path class="cls-1" d="M29.53,154.21l11.09-25.05c.07-.14.25-.25.43-.25h.11c.18,0,.36.04.47.25l10.98,25.05c.07.22.07.43-.32.43h-.94c-.25,0-.43-.18-.5-.32l-2.92-6.62h-13.75l-2.88,6.62c-.07.14-.25.32-.5.32h-1.01c-.25,0-.36-.14-.25-.43ZM47.31,146.29l-6.16-14.51h-.07l-6.26,14.51h12.49Z"/><path class="cls-1" d="M60.6,130.99h-6.88c-.36,0-.47-.22-.47-.54v-.54c0-.29.22-.47.47-.47h15.48c.29,0,.47.22.47.47v.61c0,.25-.18.47-.47.47h-6.91v23.18c0,.25-.22.47-.58.47h-.65c-.25,0-.47-.22-.47-.47v-23.18Z"/><path class="cls-1" d="M75.03,129.91c0-.25.22-.47.47-.47h.76c.25,0,.47.22.47.47v15.37c0,4.64,2.92,8.06,7.7,8.06s7.77-3.38,7.77-8.03v-15.41c0-.29.14-.47.5-.47h.72c.25,0,.47.22.47.47v15.55c0,5.51-3.74,9.54-9.47,9.54s-9.4-4.03-9.4-9.54v-15.55Z"/><path class="cls-1" d="M102.79,129.91c0-.25.18-.47.47-.47h8.93c4.39,0,8.03,3.31,8.03,7.7,0,3.64-2.52,6.55-5.94,7.52l5.26,9.32c.18.29.11.65-.25.65h-1.12c-.25,0-.4-.11-.5-.32l-5.22-9.43c-.47.04-.86.04-1.33.04h-6.62v9.25c0,.25-.22.47-.58.47h-.65c-.25,0-.47-.22-.47-.47v-24.26ZM112.11,143.41c3.46,0,6.37-2.7,6.37-6.26s-2.92-6.05-6.41-6.05h-7.56v12.31h7.59Z"/><path class="cls-1" d="M127.73,129.91c0-.25.22-.47.47-.47h14.43c.25,0,.47.22.47.47v.61c0,.25-.22.47-.47.47h-13.17v9.94h11.41c.25,0,.47.22.47.47v.61c0,.25-.22.47-.47.47h-11.41v10.65h13.17c.25,0,.47.22.47.47v.58c0,.25-.22.47-.47.47h-14.43c-.25,0-.47-.22-.47-.47v-24.26Z"/><path class="cls-1" d="M171.4,129.08c3.67,0,6.41,1.22,8.75,3.35.18.18.22.47.04.65l-.58.61c-.22.22-.4.18-.61-.04-2.05-1.84-4.64-2.95-7.6-2.95-6.3,0-11.23,5.15-11.23,11.37s4.93,11.3,11.23,11.3c3.1,0,5.44-1.22,7.6-3.02.22-.18.43-.18.58-.07l.61.61c.18.14.18.43,0,.61-2.45,2.38-5.58,3.49-8.78,3.49-7.2,0-13.03-5.69-13.03-12.92s5.83-12.99,13.03-12.99Z"/><path class="cls-1" d="M187.57,129.91c0-.25.22-.47.47-.47h14.43c.25,0,.47.22.47.47v.61c0,.25-.22.47-.47.47h-13.17v9.94h11.41c.25,0,.47.22.47.47v.61c0,.25-.22.47-.47.47h-11.41v10.65h13.17c.25,0,.47.22.47.47v.58c0,.25-.22.47-.47.47h-14.43c-.25,0-.47-.22-.47-.47v-24.26Z"/><path class="cls-1" d="M210.64,129.55c0-.29.25-.47.54-.47h.61l17.28,22.5h.04v-21.67c0-.25.22-.47.47-.47h.72c.25,0,.47.22.47.47v24.62c0,.32-.29.47-.58.47h-.47s-.32-.11-17.42-22.71h-.04v21.89c0,.25-.22.47-.47.47h-.68c-.25,0-.47-.22-.47-.47v-24.62Z"/><path class="cls-1" d="M243.76,130.99h-6.88c-.36,0-.47-.22-.47-.54v-.54c0-.29.22-.47.47-.47h15.48c.29,0,.47.22.47.47v.61c0,.25-.18.47-.47.47h-6.91v23.18c0,.25-.22.47-.58.47h-.65c-.25,0-.47-.22-.47-.47v-23.18Z"/><path class="cls-1" d="M258.48,129.91c0-.25.22-.47.47-.47h14.43c.25,0,.47.22.47.47v.61c0,.25-.22.47-.47.47h-13.17v9.94h11.41c.25,0,.47.22.47.47v.61c0,.25-.22.47-.47.47h-11.41v10.65h13.17c.25,0,.47.22.47.47v.58c0,.25-.22.47-.47.47h-14.43c-.25,0-.47-.22-.47-.47v-24.26Z"/><path class="cls-1" d="M281.56,129.91c0-.25.18-.47.47-.47h8.93c4.39,0,8.03,3.31,8.03,7.7,0,3.64-2.52,6.55-5.94,7.52l5.26,9.32c.18.29.11.65-.25.65h-1.12c-.25,0-.4-.11-.5-.32l-5.22-9.43c-.47.04-.86.04-1.33.04h-6.62v9.25c0,.25-.22.47-.58.47h-.65c-.25,0-.47-.22-.47-.47v-24.26ZM290.88,143.41c3.46,0,6.37-2.7,6.37-6.26s-2.92-6.05-6.41-6.05h-7.56v12.31h7.6Z"/></svg>