<?xml version="1.0" encoding="UTF-8"?><svg id="Layer_1" xmlns="http://www.w3.org/2000/svg" viewBox="0 0 418.95 220.23"><defs><style>.cls-1{fill:#203d54;}</style></defs><path class="cls-1" d="M152.95,75.93c0-7.13-5.4-8.35-14.62-10.73-8.42-2.16-13.32-4.61-13.32-13.75,0-7.27,4.9-14.69,14.98-14.69,5.62,0,9,2.23,11.23,2.23,1.08,0,1.37-.5,1.87-1.44h1.08l.5,14.54h-1.58c-2.16-9-5.11-13.32-13.32-13.32-6.7,0-10.3,3.67-10.3,9.22s5.4,7.63,11.81,9.36c7.85,2.09,15.77,4.25,15.77,15.19,0,9.22-5.83,16.13-16.49,16.13-6.7,0-10.44-2.16-12.67-2.16-1.08,0-1.3.79-1.87,2.16h-1.22l-.72-16.42h1.58c2.16,9.07,5.76,14.4,14.69,14.4,7.63,0,12.6-4.39,12.6-10.73Z"/><path class="cls-1" d="M170.73,70.17c0,10.94,3.02,15.99,9.79,15.99s9.29-5.26,10.01-9.5l2.09.36c-.79,4.32-3.02,11.67-13.75,11.67-10.01,0-15.7-6.19-15.7-17.21,0-12.38,6.98-18.51,17.21-18.51,7.71,0,12.03,3.53,12.03,9.14,0,3.67-1.87,5.26-4.39,5.26s-4.18-1.58-4.18-4.39c0-.72.07-1.66.36-2.66h1.94c.14-.58.22-1.15.22-1.66,0-2.52-1.73-3.96-5.54-3.96-6.99,0-10.08,4.82-10.08,15.48Z"/><path class="cls-1" d="M208.17,33.95v26.5c1.66-3.53,5.4-7.49,12.67-7.49,6.62,0,10.66,3.31,10.66,12.03v21.1h5.47v1.87h-17.79v-1.87h5.4v-21.82c0-5.98-1.3-8.71-5.83-8.71-5.54,0-10.58,4.75-10.58,11.45v19.08h5.47v1.87h-17.79v-1.87h5.4v-50.26h-5.4v-1.87h12.31Z"/><path class="cls-1" d="M252.3,33.95v52.13h5.4v1.87h-17.71v-1.87h5.4v-50.26h-5.4v-1.87h12.31Z"/><path class="cls-1" d="M273.83,53.68v32.4h5.47v1.87h-17.79v-1.87h5.4v-30.53h-5.4v-1.87h12.31ZM269.8,37.63c2.52,0,4.39,1.22,4.39,4.25,0,2.59-1.51,4.39-4.32,4.39-3.31,0-4.39-2.23-4.39-4.39,0-2.3,1.51-4.25,4.32-4.25Z"/><path class="cls-1" d="M287.58,55.56h-5.4v-1.87h5.4v-9.29l6.91-1.87v11.16h10.08v1.87h-10.08v23.69c0,4.25,1.08,6.05,4.82,6.05,3.96,0,5.69-2.74,6.34-7.63l1.66.22c-.65,5.62-2.74,10.8-10.44,10.8-5.4,0-9.29-2.09-9.29-8.57v-24.55Z"/><path class="cls-1" d="M339.06,55.56l-20.52,30.53h10.23c6.26,0,7.63-2.95,9.79-10.08h1.37l-.72,11.95h-28.66v-1.66l20.81-30.75h-9.5c-5.47,0-6.84.58-9.65,8.93h-1.51l.72-10.8h27.65v1.87Z"/><path class="cls-1" d="M149.56,130.31h-16.35l-5.33,14.69h6.55v2.09h-14.47v-2.09h5.04l18.29-49.11h1.94l17.64,49.11h4.97v2.09h-19.58v-2.09h6.34l-5.04-14.69ZM133.94,128.22h14.91l-7.2-21.6-7.71,21.6Z"/><path class="cls-1" d="M196,147.08l-.43-6.7c-1.66,3.53-5.33,7.42-12.17,7.42s-10.8-3.31-10.8-12.02v-21.1h-5.47v-1.87h12.38v23.76c0,5.47,1.01,8.64,5.98,8.64s9.87-5.62,9.87-10.95v-19.58h-5.47v-1.87h12.38v32.4h5.54v1.87h-11.81Z"/><path class="cls-1" d="M236.25,141.54c-2.3,3.67-5.62,6.26-11.3,6.26-8.5,0-13.97-5.83-13.97-17.5s5.9-18.22,15.19-18.22c5.04,0,8.14,2.02,10.08,5.04v-22.18h-6.77v-1.87h13.68v52.13h5.83v1.87h-12.17l-.58-5.54ZM236.47,134.92v-11.3c0-3.96-3.46-9.29-9.07-9.29-6.19,0-8.86,5.18-8.86,15.7,0,9.22,1.66,15.05,7.99,15.05,5.04,0,9.94-4.03,9.94-10.15Z"/><path class="cls-1" d="M279.66,147.08l-.43-6.7c-1.66,3.53-5.33,7.42-12.17,7.42s-10.8-3.31-10.8-12.02v-21.1h-5.47v-1.87h12.38v23.76c0,5.47,1.01,8.64,5.98,8.64s9.87-5.62,9.87-10.95v-19.58h-5.47v-1.87h12.38v32.4h5.54v1.87h-11.81Z"/><path class="cls-1" d="M305.44,118.35c2.3-3.67,5.98-6.26,11.67-6.26,8.5,0,13.61,5.83,13.61,17.5s-5.98,18.22-15.19,18.22c-5.4,0-8.86-1.66-11.38-4.9l-4.03,4.83h-1.58v-52.78h-5.83v-1.87h12.75v25.27ZM305.22,124.98v11.09c0,5.69,3.6,9.5,9.43,9.5s8.5-4.54,8.5-15.7c0-9.22-1.44-15.05-7.99-15.05-4.82,0-9.94,4.03-9.94,10.15Z"/><path class="cls-1" d="M352.24,112.09c10.08,0,15.99,5.54,15.99,17.64,0,11.16-5.9,18.07-16.27,18.07s-16.2-6.48-16.2-17.71,6.62-18,16.49-18ZM352.09,113.82c-7.34,0-8.78,7.13-8.78,15.77s1.51,16.49,8.78,16.49,8.57-6.77,8.57-16.35c0-8.57-1.44-15.91-8.57-15.91Z"/><path class="cls-1" d="M384.78,112.81v6.77c1.66-3.53,5.4-7.49,12.67-7.49,6.62,0,10.66,3.31,10.66,12.03v21.1h5.47v1.87h-17.79v-1.87h5.4v-22.25c0-5.33-1.3-8.28-5.76-8.28-5.62,0-10.66,4.75-10.66,11.45v19.08h5.47v1.87h-17.79v-1.87h5.4v-30.53h-5.4v-1.87h12.31Z"/><path class="cls-1" d="M123.79,163.5c0-.29.25-.47.54-.47h.61l17.28,22.5h.04v-21.67c0-.25.22-.47.47-.47h.72c.25,0,.47.22.47.47v24.62c0,.32-.29.47-.58.47h-.47s-.32-.11-17.42-22.71h-.04v21.89c0,.25-.22.47-.47.47h-.68c-.25,0-.47-.22-.47-.47v-24.62Z"/><path class="cls-1" d="M149.5,188.16l11.09-25.05c.07-.14.25-.25.43-.25h.11c.18,0,.36.04.47.25l10.98,25.05c.07.22.07.43-.32.43h-.94c-.25,0-.43-.18-.5-.32l-2.92-6.62h-13.75l-2.88,6.62c-.07.14-.25.32-.5.32h-1.01c-.25,0-.36-.14-.25-.43ZM167.28,180.24l-6.16-14.51h-.07l-6.26,14.51h12.49Z"/><path class="cls-1" d="M180.56,164.94h-6.88c-.36,0-.47-.22-.47-.54v-.54c0-.29.22-.47.47-.47h15.48c.29,0,.47.22.47.47v.61c0,.25-.18.47-.47.47h-6.91v23.18c0,.25-.22.47-.58.47h-.65c-.25,0-.47-.22-.47-.47v-23.18Z"/><path class="cls-1" d="M195,163.86c0-.25.22-.47.47-.47h.76c.25,0,.47.22.47.47v15.37c0,4.64,2.92,8.06,7.7,8.06s7.77-3.38,7.77-8.03v-15.41c0-.29.14-.47.5-.47h.72c.25,0,.47.22.47.47v15.55c0,5.51-3.74,9.54-9.47,9.54s-9.39-4.03-9.39-9.54v-15.55Z"/><path class="cls-1" d="M222.76,163.86c0-.25.18-.47.47-.47h8.93c4.39,0,8.03,3.31,8.03,7.7,0,3.64-2.52,6.55-5.94,7.52l5.25,9.32c.18.29.11.65-.25.65h-1.12c-.25,0-.4-.11-.5-.32l-5.22-9.43c-.47.04-.86.04-1.33.04h-6.62v9.25c0,.25-.22.47-.58.47h-.65c-.25,0-.47-.22-.47-.47v-24.26ZM232.08,177.36c3.46,0,6.37-2.7,6.37-6.26s-2.92-6.05-6.41-6.05h-7.56v12.31h7.59Z"/><path class="cls-1" d="M247.7,163.86c0-.25.22-.47.47-.47h14.43c.25,0,.47.22.47.47v.61c0,.25-.22.47-.47.47h-13.17v9.94h11.41c.25,0,.47.22.47.47v.61c0,.25-.22.47-.47.47h-11.41v10.65h13.17c.25,0,.47.22.47.47v.58c0,.25-.22.47-.47.47h-14.43c-.25,0-.47-.22-.47-.47v-24.26Z"/><path class="cls-1" d="M291.37,163.03c3.67,0,6.41,1.22,8.75,3.35.18.18.22.47.04.65l-.58.61c-.22.22-.4.18-.61-.04-2.05-1.84-4.64-2.95-7.59-2.95-6.3,0-11.23,5.15-11.23,11.37s4.93,11.3,11.23,11.3c3.09,0,5.43-1.22,7.59-3.02.22-.18.43-.18.58-.07l.61.61c.18.14.18.43,0,.61-2.45,2.38-5.58,3.49-8.78,3.49-7.2,0-13.03-5.69-13.03-12.92s5.83-12.99,13.03-12.99Z"/><path class="cls-1" d="M307.53,163.86c0-.25.22-.47.47-.47h14.43c.25,0,.47.22.47.47v.61c0,.25-.22.47-.47.47h-13.17v9.94h11.41c.25,0,.47.22.47.47v.61c0,.25-.22.47-.47.47h-11.41v10.65h13.17c.25,0,.47.22.47.47v.58c0,.25-.22.47-.47.47h-14.43c-.25,0-.47-.22-.47-.47v-24.26Z"/><path class="cls-1" d="M330.61,163.5c0-.29.25-.47.54-.47h.61l17.28,22.5h.04v-21.67c0-.25.22-.47.47-.47h.72c.25,0,.47.22.47.47v24.62c0,.32-.29.47-.58.47h-.47s-.32-.11-17.42-22.71h-.04v21.89c0,.25-.22.47-.47.47h-.68c-.25,0-.47-.22-.47-.47v-24.62Z"/><path class="cls-1" d="M363.73,164.94h-6.88c-.36,0-.47-.22-.47-.54v-.54c0-.29.22-.47.47-.47h15.48c.29,0,.47.22.47.47v.61c0,.25-.18.47-.47.47h-6.91v23.18c0,.25-.22.47-.58.47h-.65c-.25,0-.47-.22-.47-.47v-23.18Z"/><path class="cls-1" d="M378.45,163.86c0-.25.22-.47.47-.47h14.43c.25,0,.47.22.47.47v.61c0,.25-.22.47-.47.47h-13.17v9.94h11.41c.25,0,.47.22.47.47v.61c0,.25-.22.47-.47.47h-11.41v10.65h13.17c.25,0,.47.22.47.47v.58c0,.25-.22.47-.47.47h-14.43c-.25,0-.47-.22-.47-.47v-24.26Z"/><path class="cls-1" d="M401.53,163.86c0-.25.18-.47.47-.47h8.93c4.39,0,8.03,3.31,8.03,7.7,0,3.64-2.52,6.55-5.94,7.52l5.26,9.32c.18.29.11.65-.25.65h-1.12c-.25,0-.4-.11-.5-.32l-5.22-9.43c-.47.04-.86.04-1.33.04h-6.62v9.25c0,.25-.22.47-.58.47h-.65c-.25,0-.47-.22-.47-.47v-24.26ZM410.85,177.36c3.46,0,6.37-2.7,6.37-6.26s-2.92-6.05-6.41-6.05h-7.56v12.31h7.6Z"/><path class="cls-1" d="M65.09,119.01l2.02-2.29s-4.18-2.43-.94-3.78l-4.72-7.42s6.07-4.05,14.7-4.59l2.06-.37c-2.71,2.2-4.53,6.3-4.53,11.01,0,7.02,4.05,12.72,9.04,12.72s9.04-5.69,9.04-12.72c0-6.47-3.43-11.8-7.88-12.6l.22-.74-8.77-1.35-11.6-.67s-8.36-3.91-9.85-3.64c0,0-.54,1.74,1.62,2.83l-1.68.55s.6,2.16,2.49,2.29l-2.49.54s.87,2.43,2.89,2.43h-3.51s1.08,3.37,3.1,3.78l2.02,3.51s-3.24,24.28,22.66,29.54c17.26,0,18.07-10.12,18.07-10.12v-2.43s-20.5,19.29-33.99-6.47Z"/><path class="cls-1" d="M102.59,158.75l11.94,29.84v-50.57l-11.67,17.97c-.53.82-.63,1.85-.27,2.76Z"/><path class="cls-1" d="M70.77,50.5s-13.31-31.73-13.65-38.22c0,0-3.07,18.43,0,23.2,0,0-14.33-18.08-16.38-23.2,0,0-4.78,4.09,0,12.28,0,0-6.14-.34-11.6-8.19,0,0-5.46-12.63-6.48-16.38,0,0-3.07,5.12,0,12.28l4.44,7.85-9.21-10.24c.13-.1,7.47,19.49,11.24,21.99-2.46-1.33-4.96-2.52-7.49-3.56-.32.2,9.99,12.44,14.67,12.28,0,0-7.51,1.36-15.01-8.53,0,0,0,4.09-6.14-1.02,0,0,5.8,15.7,26.27,26.62,0,0,1.94,2.88,4.97,6.86h0s-15.53,10.73-14.89,43.37l-.02,12.8s13.42-44.27,18.67-51.39c6.99,8.57,16.71,18.73,23.52,18.73,0,0-9.04,3.25-8.02,4.52h12.79s16.98,6.41,17.3,7.57c0,0,6.32.57,1.65-5.96,0,0-24.57-33.44-26.62-43.68Z"/><path class="cls-1" d="M201.39,32.07c.21-.05.43-.16.66-.32l-.66.32Z"/><path class="cls-1" d="M68.81,168.3c-3.55-1.19-6.89-1.77-10.03-1.83-5.26-4.98-16.54-16.76-21.36-30.27l-2.88-.96s2.02,17.72,16.61,32.22h.01c-.8.24-1.59.51-2.36.84,15.24.9,29.39,9.64,42.96,22.65-6.53-10.84-13.87-19.33-22.94-22.65Z"/><path class="cls-1" d="M95.02,41.92l-6.45,5.67s.39,6.47,14.55,7.28c0,0,5.57-1.15,11.41.89v-18.28s-13.05-1.22-19.51,4.44Z"/><path class="cls-1" d="M12.22,96.45s18.6-10.32,19.26-17.28c0,0-4.38,1.92-8.94-1.92,0,0,13.91-.52,12-12.73,0,0-8.64,12.01-16.33,11.61,0,0,1.76,4.05,8.16,4.86,0,0-8.97,14.57-19.5,13.76,0,0,4.86,6.37,10.93,7.84,0,0-2.43,14.02-9.31,10.78l4.05,4.45s-10.12,2.63-12.55-2.53c0,0,3.75,11.71,9.8,14.4l-9.8-3.77s2.78,24.69,15.15,31.16c0,0-8.02-10.51-9.49-24.69l11.6,2.86s-4.49-8.25-8.37-12.57c0,0,11.33-.4,10.93-4.05l-5.93-3.34s7.92-9.77,7.92-15.14l-9.6-3.69Z"/><path class="cls-1" d="M59.25,209s-21.46-20.8-34.99-23.77c0,0,37.85,28.39,38.9,34.99,0,0,6.06-11.88-6.02-26.41,0,0,15.52,18.82,31.43,15.19,0,0-29.65-15.19-40.87-26.41l11.55,26.41Z"/></svg>